<svg width="26" height="30" viewBox="0 0 26 30" fill="none" xmlns="http://www.w3.org/2000/svg">
<path d="M12.9998 16.0465C8.58759 16.0465 4.99658 12.4465 4.99658 8.02326C4.99658 3.6 8.58759 0 12.9998 0C17.412 0 21.003 3.6 21.003 8.02326C21.003 12.4465 17.412 16.0465 12.9998 16.0465ZM12.9998 2.09302C9.74284 2.09302 7.08438 4.75814 7.08438 8.02326C7.08438 11.2884 9.74284 13.9535 12.9998 13.9535C16.2568 13.9535 18.9152 11.2884 18.9152 8.02326C18.9152 4.75814 16.2568 2.09302 12.9998 2.09302Z" fill="black"/>
<path d="M24.9561 30C24.3854 30 23.9122 29.5256 23.9122 28.9535C23.9122 24.1395 19.0128 20.2326 13 20.2326C6.98715 20.2326 2.0878 24.1395 2.0878 28.9535C2.0878 29.5256 1.61456 30 1.0439 30C0.473234 30 0 29.5256 0 28.9535C0 22.9953 5.8319 18.1395 13 18.1395C20.1681 18.1395 26 22.9953 26 28.9535C26 29.5256 25.5268 30 24.9561 30Z" fill="black"/>
</svg>
