<svg width="130" height="38" viewBox="0 0 130 38" fill="none" xmlns="http://www.w3.org/2000/svg">
<path d="M129.278 33.6177C129.278 35.6427 127.623 37.2831 125.576 37.2831H4.42898C2.38298 37.2831 0.722229 35.6427 0.722229 33.6177V4.38723C0.722229 2.36313 2.38298 0.717041 4.42898 0.717041H125.575C127.623 0.717041 129.277 2.36313 129.277 4.38723L129.278 33.6177Z" fill="black"/>
<path d="M125.185 0.761186C127.414 0.761186 129.228 2.55075 129.228 4.75V33.25C129.228 35.4492 127.414 37.2388 125.185 37.2388H4.81481C2.58556 37.2388 0.771574 35.4492 0.771574 33.25V4.75C0.771574 2.55075 2.58556 0.761186 4.81481 0.761186H125.185ZM125.185 -3.53808e-07H4.81481C2.16787 -3.53808e-07 0 2.13869 0 4.75V33.25C0 35.8613 2.16787 38 4.81481 38H125.185C127.832 38 130 35.8613 130 33.25V4.75C130 2.13869 127.832 -3.53808e-07 125.185 -3.53808e-07Z" fill="#A6A6A6"/>
<path d="M29.0122 18.7947C28.9843 15.7328 31.5535 14.2432 31.6709 14.1739C30.2159 12.081 27.9606 11.7951 27.1681 11.7723C25.274 11.5756 23.4366 12.8904 22.4718 12.8904C21.4876 12.8904 20.0017 11.7913 18.4003 11.8236C16.3396 11.8549 14.4117 13.032 13.3544 14.8598C11.1723 18.5866 12.7998 24.0634 14.8903 27.0758C15.9361 28.5512 17.1581 30.1985 18.7576 30.1405C20.3224 30.0769 20.9069 29.1563 22.7953 29.1563C24.6663 29.1563 25.2152 30.1405 26.8465 30.1035C28.5259 30.0769 29.5832 28.6215 30.5924 27.1328C31.8009 25.4418 32.2863 23.7765 32.3055 23.691C32.266 23.6777 29.044 22.4645 29.0122 18.7947Z" fill="white"/>
<path d="M25.9307 9.79056C26.7723 8.75221 27.3482 7.33956 27.1883 5.90601C25.9702 5.95921 24.4468 6.73726 23.5695 7.75281C22.7934 8.64771 22.1 10.1145 22.2792 11.4939C23.6475 11.5946 25.0525 10.8128 25.9307 9.79056Z" fill="white"/>
<path d="M51.6581 29.929H49.4712L48.2733 26.2154H44.1095L42.9683 29.929H40.8392L44.9646 17.2864H47.5126L51.6581 29.929ZM47.9122 24.6574L46.8289 21.3562C46.7143 21.0189 46.4995 20.2247 46.1827 18.9745H46.1442C46.018 19.5122 45.8149 20.3064 45.5356 21.3562L44.4715 24.6574H47.9122Z" fill="white"/>
<path d="M62.2671 25.2586C62.2671 26.809 61.8424 28.0345 60.9931 28.9342C60.2323 29.735 59.2877 30.135 58.16 30.135C56.9429 30.135 56.0685 29.7037 55.536 28.8411H55.4975V33.6433H53.4444V23.8137C53.4444 22.839 53.4184 21.8386 53.3683 20.8126H55.1739L55.2885 22.2576H55.327C56.0117 21.1689 57.0507 20.6255 58.4451 20.6255C59.5352 20.6255 60.4452 21.0501 61.1732 21.9004C61.9031 22.7516 62.2671 23.8707 62.2671 25.2586ZM60.1755 25.3327C60.1755 24.4454 59.9733 23.7139 59.5669 23.1382C59.123 22.5378 58.5269 22.2376 57.7797 22.2376C57.2732 22.2376 56.8129 22.4048 56.4017 22.7345C55.9895 23.067 55.7199 23.5011 55.5938 24.0388C55.5302 24.2896 55.4984 24.4948 55.4984 24.6563V26.1763C55.4984 26.8394 55.7045 27.399 56.1166 27.8559C56.5288 28.3129 57.0642 28.5409 57.7229 28.5409C58.4961 28.5409 59.098 28.2464 59.5284 27.6593C59.9598 27.0712 60.1755 26.296 60.1755 25.3327Z" fill="white"/>
<path d="M72.8953 25.2586C72.8953 26.809 72.4706 28.0345 71.6203 28.9342C70.8605 29.735 69.9159 30.135 68.7882 30.135C67.5711 30.135 66.6967 29.7037 66.1651 28.8411H66.1266V33.6433H64.0736V23.8137C64.0736 22.839 64.0476 21.8386 63.9975 20.8126H65.8031L65.9176 22.2576H65.9562C66.6399 21.1689 67.6789 20.6255 69.0742 20.6255C70.1634 20.6255 71.0734 21.0501 71.8033 21.9004C72.5303 22.7516 72.8953 23.8707 72.8953 25.2586ZM70.8037 25.3327C70.8037 24.4454 70.6005 23.7139 70.1942 23.1382C69.7502 22.5378 69.1561 22.2376 68.4079 22.2376C67.9004 22.2376 67.4411 22.4048 67.0289 22.7345C66.6168 23.067 66.3481 23.5011 66.2219 24.0388C66.1593 24.2896 66.1266 24.4948 66.1266 24.6563V26.1763C66.1266 26.8394 66.3327 27.399 66.7429 27.8559C67.1551 28.3119 67.6905 28.5409 68.3511 28.5409C69.1243 28.5409 69.7262 28.2464 70.1566 27.6593C70.588 27.0712 70.8037 26.296 70.8037 25.3327Z" fill="white"/>
<path d="M84.7783 26.3835C84.7783 27.4589 84.3998 28.3339 83.6401 29.0093C82.8052 29.7475 81.6429 30.1161 80.1493 30.1161C78.7704 30.1161 77.6649 29.8539 76.8281 29.3285L77.3038 27.6404C78.2051 28.1781 79.1941 28.4479 80.2716 28.4479C81.0449 28.4479 81.6467 28.275 82.0791 27.9311C82.5095 27.5872 82.7243 27.1255 82.7243 26.5498C82.7243 26.0368 82.5471 25.6045 82.1918 25.254C81.8384 24.9034 81.2481 24.5776 80.4238 24.2764C78.1801 23.4509 77.0592 22.2415 77.0592 20.6512C77.0592 19.6119 77.4521 18.7598 78.2388 18.0967C79.0227 17.4326 80.0684 17.1011 81.3761 17.1011C82.5423 17.1011 83.511 17.3015 84.2843 17.7015L83.771 19.3526C83.0488 18.965 82.2322 18.7712 81.3184 18.7712C80.5961 18.7712 80.0318 18.9469 79.6274 19.2965C79.2856 19.6091 79.1141 19.99 79.1141 20.4413C79.1141 20.941 79.3096 21.3542 79.7025 21.6791C80.0444 21.9793 80.6655 22.3042 81.5668 22.6548C82.6694 23.0927 83.4793 23.6048 84.0002 24.1919C84.5193 24.7771 84.7783 25.5095 84.7783 26.3835Z" fill="white"/>
<path d="M91.5662 22.3325H89.3032V26.7585C89.3032 27.8843 89.7019 28.4467 90.5012 28.4467C90.8681 28.4467 91.1724 28.4153 91.4131 28.3526L91.4699 29.8907C91.0655 30.0398 90.533 30.1149 89.8733 30.1149C89.0625 30.1149 88.4289 29.8707 87.9715 29.3834C87.516 28.8951 87.2868 28.0762 87.2868 26.9257V22.3306H85.9387V20.8106H87.2868V19.1414L89.3032 18.541V20.8106H91.5662V22.3325Z" fill="white"/>
<path d="M101.776 25.2957C101.776 26.697 101.37 27.8474 100.559 28.7471C99.709 29.6733 98.5804 30.135 97.1735 30.135C95.8177 30.135 94.7382 29.6914 93.9331 28.8041C93.1281 27.9168 92.7256 26.7967 92.7256 25.4468C92.7256 24.0341 93.1397 22.877 93.9707 21.9774C94.7998 21.0768 95.9188 20.6265 97.3257 20.6265C98.6815 20.6265 99.7725 21.0701 100.596 21.9584C101.384 22.82 101.776 23.9325 101.776 25.2957ZM99.6464 25.3613C99.6464 24.5205 99.4644 23.7995 99.0956 23.1981C98.6651 22.4704 98.0498 22.1075 97.2525 22.1075C96.4272 22.1075 95.8003 22.4714 95.3699 23.1981C95.0011 23.8004 94.8191 24.5329 94.8191 25.3993C94.8191 26.24 95.0011 26.9611 95.3699 27.5615C95.8138 28.2892 96.434 28.6521 97.2342 28.6521C98.018 28.6521 98.6334 28.2816 99.0773 27.5425C99.4557 26.9297 99.6464 26.2011 99.6464 25.3613Z" fill="white"/>
<path d="M108.45 22.5939C108.247 22.5568 108.03 22.5378 107.803 22.5378C107.081 22.5378 106.522 22.8067 106.129 23.3453C105.787 23.8203 105.616 24.4207 105.616 25.1456V29.9288H103.564L103.583 23.6835C103.583 22.6328 103.557 21.6762 103.506 20.8136H105.294L105.369 22.5578H105.426C105.643 21.9583 105.985 21.4757 106.453 21.1138C106.91 20.7879 107.404 20.6255 107.937 20.6255C108.126 20.6255 108.298 20.6388 108.45 20.6625V22.5939Z" fill="white"/>
<path d="M117.632 24.9394C117.632 25.3023 117.608 25.6082 117.556 25.8581H111.397C111.421 26.7587 111.719 27.4474 112.291 27.9224C112.81 28.3471 113.481 28.5599 114.306 28.5599C115.217 28.5599 116.049 28.4164 116.798 28.1286L117.119 29.5346C116.245 29.9108 115.213 30.0979 114.021 30.0979C112.589 30.0979 111.464 29.6818 110.645 28.8506C109.829 28.0193 109.419 26.9031 109.419 25.5028C109.419 24.1281 109.8 22.9834 110.562 22.0704C111.359 21.0957 112.436 20.6084 113.792 20.6084C115.124 20.6084 116.132 21.0957 116.817 22.0704C117.359 22.8447 117.632 23.8023 117.632 24.9394ZM115.674 24.4141C115.687 23.8137 115.554 23.295 115.275 22.857C114.92 22.2937 114.374 22.0125 113.639 22.0125C112.968 22.0125 112.422 22.287 112.005 22.838C111.663 23.276 111.46 23.8013 111.397 24.4131H115.674V24.4141Z" fill="white"/>
<path d="M47.2333 9.50851C47.2333 10.6267 46.8934 11.4684 46.2145 12.0336C45.5857 12.5552 44.6921 12.8164 43.5346 12.8164C42.9606 12.8164 42.4695 12.7917 42.0583 12.7423V6.63286C42.5947 6.54736 43.1725 6.50366 43.7965 6.50366C44.8991 6.50366 45.7301 6.74021 46.2906 7.21331C46.9184 7.74816 47.2333 8.51291 47.2333 9.50851ZM46.1692 9.53606C46.1692 8.81121 45.9747 8.25546 45.5857 7.86786C45.1967 7.48121 44.6285 7.28741 43.8803 7.28741C43.5625 7.28741 43.2919 7.30831 43.0675 7.35201V11.9966C43.1918 12.0156 43.419 12.0241 43.7493 12.0241C44.5216 12.0241 45.1177 11.8123 45.5375 11.3886C45.9574 10.9649 46.1692 10.3474 46.1692 9.53606Z" fill="white"/>
<path d="M52.8753 10.4849C52.8753 11.1737 52.676 11.738 52.2773 12.1807C51.8594 12.6357 51.3057 12.8628 50.6143 12.8628C49.9479 12.8628 49.4173 12.6452 49.0215 12.2082C48.6267 11.7722 48.4293 11.2221 48.4293 10.559C48.4293 9.86555 48.6325 9.2965 49.0408 8.85475C49.4491 8.413 49.998 8.19165 50.6894 8.19165C51.3558 8.19165 51.8912 8.4092 52.2966 8.84525C52.6818 9.26895 52.8753 9.81615 52.8753 10.4849ZM51.8286 10.5173C51.8286 10.104 51.7381 9.74965 51.558 9.4542C51.3461 9.097 51.0447 8.9184 50.6528 8.9184C50.2474 8.9184 49.9392 9.097 49.7274 9.4542C49.5464 9.74965 49.4568 10.1097 49.4568 10.5353C49.4568 10.9485 49.5473 11.3029 49.7274 11.5983C49.946 11.9555 50.2503 12.1341 50.6432 12.1341C51.0284 12.1341 51.3307 11.9527 51.5484 11.5889C51.7352 11.2877 51.8286 10.9305 51.8286 10.5173Z" fill="white"/>
<path d="M60.4404 8.28296L59.02 12.7613H58.0956L57.5072 10.8166C57.3579 10.3312 57.2366 9.84856 57.1422 9.36976H57.1239C57.0363 9.86186 56.915 10.3435 56.759 10.8166L56.134 12.7613H55.199L53.8633 8.28296H54.9005L55.4137 10.4119C55.5379 10.9154 55.64 11.3952 55.7219 11.8493H55.7402C55.8153 11.475 55.9395 10.9981 56.1147 10.4214L56.759 8.28391H57.5813L58.1986 10.3758C58.3479 10.886 58.4692 11.3771 58.5626 11.8502H58.5905C58.6589 11.3895 58.7619 10.8983 58.8987 10.3758L59.4495 8.28391H60.4404V8.28296Z" fill="white"/>
<path d="M65.6722 12.7613H64.663V10.1963C64.663 9.40592 64.3587 9.01071 63.7482 9.01071C63.4487 9.01071 63.207 9.11902 63.0192 9.33657C62.8334 9.55412 62.739 9.81062 62.739 10.1042V12.7604H61.7298V9.56267C61.7298 9.16937 61.7173 8.74282 61.6932 8.28111H62.5801L62.6273 8.98127H62.6552C62.7727 8.76372 62.948 8.58417 63.1781 8.44072C63.4516 8.27352 63.7578 8.18896 64.0929 8.18896C64.5166 8.18896 64.8691 8.32386 65.1493 8.59462C65.4979 8.92617 65.6722 9.42112 65.6722 10.0785V12.7613Z" fill="white"/>
<path d="M68.4551 12.7614H67.4469V6.22827H68.4551V12.7614Z" fill="white"/>
<path d="M74.3966 10.4849C74.3966 11.1737 74.1973 11.738 73.7986 12.1807C73.3807 12.6357 72.826 12.8628 72.1356 12.8628C71.4683 12.8628 70.9377 12.6452 70.5428 12.2082C70.148 11.7722 69.9506 11.2221 69.9506 10.559C69.9506 9.86555 70.1538 9.2965 70.5621 8.85475C70.9704 8.413 71.5193 8.19165 72.2097 8.19165C72.8771 8.19165 73.4115 8.4092 73.8179 8.84525C74.2031 9.26895 74.3966 9.81615 74.3966 10.4849ZM73.3489 10.5173C73.3489 10.104 73.2584 9.74965 73.0783 9.4542C72.8674 9.097 72.5651 8.9184 72.1741 8.9184C71.7677 8.9184 71.4596 9.097 71.2487 9.4542C71.0677 9.74965 70.9781 10.1097 70.9781 10.5353C70.9781 10.9485 71.0686 11.3029 71.2487 11.5983C71.4673 11.9555 71.7716 12.1341 72.1645 12.1341C72.5497 12.1341 72.8511 11.9527 73.0687 11.5889C73.2565 11.2877 73.3489 10.9305 73.3489 10.5173Z" fill="white"/>
<path d="M79.2807 12.7611H78.3746L78.2995 12.2453H78.2716C77.9615 12.6567 77.5195 12.8628 76.9456 12.8628C76.517 12.8628 76.1704 12.7269 75.9094 12.4571C75.6725 12.212 75.5541 11.9071 75.5541 11.5451C75.5541 10.9979 75.7852 10.5809 76.2503 10.2921C76.7144 10.0033 77.3673 9.86175 78.208 9.8684V9.7848C78.208 9.19485 77.8941 8.90035 77.2653 8.90035C76.8175 8.90035 76.4227 9.0115 76.0818 9.2319L75.8767 8.5783C76.2984 8.32085 76.8194 8.19165 77.4338 8.19165C78.6202 8.19165 79.2153 8.80915 79.2153 10.0441V11.6933C79.2153 12.1408 79.2374 12.497 79.2807 12.7611ZM78.233 11.2221V10.5315C77.1199 10.5125 76.5633 10.8137 76.5633 11.434C76.5633 11.6677 76.6268 11.8425 76.7568 11.9593C76.8868 12.0762 77.0524 12.1341 77.2499 12.1341C77.4713 12.1341 77.6784 12.0648 77.8671 11.9271C78.0568 11.7884 78.1733 11.6126 78.2167 11.3969C78.2273 11.3485 78.233 11.2896 78.233 11.2221Z" fill="white"/>
<path d="M85.0152 12.7614H84.1197L84.0725 12.0423H84.0445C83.7585 12.5895 83.2713 12.8631 82.5866 12.8631C82.0397 12.8631 81.5842 12.6512 81.2231 12.2275C80.862 11.8038 80.6819 11.2538 80.6819 10.5783C80.6819 9.85347 80.8774 9.26637 81.2703 8.81797C81.6506 8.39997 82.1167 8.19097 82.6714 8.19097C83.2809 8.19097 83.7075 8.39332 83.9502 8.79897H83.9694V6.22827H84.9796V11.5549C84.9796 11.991 84.9911 12.3928 85.0152 12.7614ZM83.9694 10.8728V10.1261C83.9694 9.99692 83.9598 9.89242 83.9415 9.81262C83.8847 9.57322 83.7624 9.37182 83.5765 9.20937C83.3888 9.04692 83.1625 8.96522 82.9015 8.96522C82.525 8.96522 82.2303 9.11247 82.0137 9.40792C81.7989 9.70337 81.6901 10.0805 81.6901 10.5413C81.6901 10.984 81.7931 11.3431 82.0002 11.6195C82.2188 11.914 82.5134 12.0613 82.8822 12.0613C83.2135 12.0613 83.4783 11.9387 83.6796 11.6927C83.8741 11.4656 83.9694 11.192 83.9694 10.8728Z" fill="white"/>
<path d="M93.6462 10.4849C93.6462 11.1737 93.4469 11.738 93.0482 12.1807C92.6303 12.6357 92.0775 12.8628 91.3852 12.8628C90.7198 12.8628 90.1892 12.6452 89.7924 12.2082C89.3976 11.7722 89.2002 11.2221 89.2002 10.559C89.2002 9.86555 89.4034 9.2965 89.8117 8.85475C90.22 8.413 90.7689 8.19165 91.4612 8.19165C92.1266 8.19165 92.663 8.4092 93.0675 8.84525C93.4526 9.26895 93.6462 9.81615 93.6462 10.4849ZM92.6004 10.5173C92.6004 10.104 92.5099 9.74965 92.3298 9.4542C92.117 9.097 91.8166 8.9184 91.4237 8.9184C91.0192 8.9184 90.7111 9.097 90.4983 9.4542C90.3172 9.74965 90.2277 10.1097 90.2277 10.5353C90.2277 10.9485 90.3182 11.3029 90.4983 11.5983C90.7169 11.9555 91.0212 12.1341 91.414 12.1341C91.7992 12.1341 92.1026 11.9527 92.3202 11.5889C92.506 11.2877 92.6004 10.9305 92.6004 10.5173Z" fill="white"/>
<path d="M99.0725 12.7613H98.0643V10.1963C98.0643 9.40592 97.76 9.01071 97.1485 9.01071C96.849 9.01071 96.6073 9.11902 96.4205 9.33657C96.2337 9.55412 96.1403 9.81062 96.1403 10.1042V12.7604H95.1301V9.56267C95.1301 9.16937 95.1186 8.74282 95.0945 8.28111H95.9804L96.0276 8.98127H96.0555C96.174 8.76372 96.3492 8.58417 96.5784 8.44072C96.8528 8.27352 97.1581 8.18896 97.4942 8.18896C97.9169 8.18896 98.2694 8.32386 98.5496 8.59462C98.8991 8.92617 99.0725 9.42112 99.0725 10.0785V12.7613Z" fill="white"/>
<path d="M105.864 9.02877H104.753V11.2043C104.753 11.7572 104.95 12.0336 105.341 12.0336C105.522 12.0336 105.673 12.0184 105.791 11.9871L105.817 12.7423C105.618 12.8164 105.356 12.8535 105.033 12.8535C104.635 12.8535 104.324 12.7338 104.1 12.4944C103.875 12.255 103.763 11.8522 103.763 11.2869V9.02877H103.1V8.28302H103.763V7.46222L104.752 7.16772V8.28207H105.863V9.02877H105.864Z" fill="white"/>
<path d="M111.207 12.7614H110.197V10.2154C110.197 9.41267 109.892 9.01082 109.283 9.01082C108.815 9.01082 108.495 9.24357 108.32 9.70907C108.29 9.80692 108.273 9.92662 108.273 10.0672V12.7605H107.264V6.22827H108.273V8.92722H108.292C108.61 8.43607 109.065 8.19097 109.655 8.19097C110.073 8.19097 110.419 8.32587 110.694 8.59662C111.035 8.93387 111.207 9.43547 111.207 10.0986V12.7614Z" fill="white"/>
<path d="M116.718 10.3102C116.718 10.4888 116.704 10.6389 116.68 10.7614H113.654C113.667 11.2041 113.812 11.5414 114.092 11.7751C114.348 11.9841 114.678 12.0886 115.083 12.0886C115.531 12.0886 115.939 12.0183 116.307 11.8767L116.465 12.5683C116.034 12.7526 115.528 12.8448 114.941 12.8448C114.238 12.8448 113.685 12.6405 113.284 12.232C112.881 11.8235 112.682 11.2754 112.682 10.5876C112.682 9.91211 112.868 9.34971 113.243 8.90131C113.634 8.42251 114.162 8.18311 114.83 8.18311C115.482 8.18311 115.978 8.42251 116.313 8.90131C116.584 9.28131 116.718 9.75155 116.718 10.3102ZM115.755 10.0527C115.763 9.75726 115.696 9.50266 115.559 9.28796C115.384 9.01151 115.117 8.87281 114.756 8.87281C114.427 8.87281 114.158 9.00771 113.953 9.27846C113.786 9.49411 113.687 9.75156 113.654 10.0527H115.755Z" fill="white"/>
</svg>
