<svg width="21" height="21" viewBox="0 0 21 21" fill="none" xmlns="http://www.w3.org/2000/svg">
<mask id="path-1-inside-1_40_201" fill="white">
<path fill-rule="evenodd" clip-rule="evenodd" d="M6.99997 17.4998C7.82838 17.4998 8.49994 18.1714 8.49994 18.9998C8.49994 19.8282 7.82838 20.4998 6.99997 20.4998C6.17156 20.4998 5.5 19.8282 5.5 18.9998C5.5 18.1714 6.17156 17.4998 6.99997 17.4998ZM15.9996 17.4998C16.8281 17.4998 17.4996 18.1714 17.4996 18.9998C17.4996 19.8282 16.8281 20.4998 15.9996 20.4998C15.1712 20.4998 14.4997 19.8282 14.4997 18.9998C14.4997 18.1714 15.1712 17.4998 15.9996 17.4998ZM1.49998 0.500183H3.49994C3.95553 0.500183 4.34823 0.807017 4.46498 1.23791L4.48829 1.34811L4.97321 4.5001H19.4996C20.0994 4.5001 20.5545 5.02077 20.4947 5.60043L20.4758 5.71701L18.8238 13.1507C18.5321 14.4636 17.4056 15.4142 16.0776 15.4944L15.8953 15.4999H7.2157C5.79425 15.4999 4.57689 14.5043 4.28258 13.1298L4.25065 12.9561L2.64204 2.50014H1.49998C0.947706 2.50014 0.5 2.05244 0.5 1.50016C0.5 0.987337 0.886032 0.564675 1.38336 0.506911L1.49998 0.500183H3.49994H1.49998ZM18.253 6.50006H5.28092L6.22738 12.652C6.29665 13.1023 6.65963 13.4438 7.10326 13.4936L7.21573 13.4999H15.8954C16.325 13.4999 16.7018 13.2264 16.8399 12.8284L16.8715 12.7169L18.253 6.50006Z"/>
</mask>
<path fill-rule="evenodd" clip-rule="evenodd" d="M6.99997 17.4998C7.82838 17.4998 8.49994 18.1714 8.49994 18.9998C8.49994 19.8282 7.82838 20.4998 6.99997 20.4998C6.17156 20.4998 5.5 19.8282 5.5 18.9998C5.5 18.1714 6.17156 17.4998 6.99997 17.4998ZM15.9996 17.4998C16.8281 17.4998 17.4996 18.1714 17.4996 18.9998C17.4996 19.8282 16.8281 20.4998 15.9996 20.4998C15.1712 20.4998 14.4997 19.8282 14.4997 18.9998C14.4997 18.1714 15.1712 17.4998 15.9996 17.4998ZM1.49998 0.500183H3.49994C3.95553 0.500183 4.34823 0.807017 4.46498 1.23791L4.48829 1.34811L4.97321 4.5001H19.4996C20.0994 4.5001 20.5545 5.02077 20.4947 5.60043L20.4758 5.71701L18.8238 13.1507C18.5321 14.4636 17.4056 15.4142 16.0776 15.4944L15.8953 15.4999H7.2157C5.79425 15.4999 4.57689 14.5043 4.28258 13.1298L4.25065 12.9561L2.64204 2.50014H1.49998C0.947706 2.50014 0.5 2.05244 0.5 1.50016C0.5 0.987337 0.886032 0.564675 1.38336 0.506911L1.49998 0.500183H3.49994H1.49998ZM18.253 6.50006H5.28092L6.22738 12.652C6.29665 13.1023 6.65963 13.4438 7.10326 13.4936L7.21573 13.4999H15.8954C16.325 13.4999 16.7018 13.2264 16.8399 12.8284L16.8715 12.7169L18.253 6.50006Z" fill="white"/>
<path d="M4.46498 1.23791L4.95415 1.13442L4.95125 1.12069L4.94758 1.10715L4.46498 1.23791ZM4.48829 1.34811L4.98248 1.27208L4.98035 1.25828L4.97746 1.24462L4.48829 1.34811ZM4.97321 4.5001L4.47903 4.57613L4.54425 5.0001H4.97321V4.5001ZM20.4947 5.60043L20.9883 5.68059L20.9906 5.66622L20.9921 5.65174L20.4947 5.60043ZM20.4758 5.71701L20.9639 5.82547L20.967 5.8114L20.9693 5.79717L20.4758 5.71701ZM18.8238 13.1507L19.3119 13.2592L18.8238 13.1507ZM16.0776 15.4944L16.0927 15.9942L16.1002 15.9939L16.1078 15.9935L16.0776 15.4944ZM15.8953 15.4999V15.9999H15.9029L15.9104 15.9997L15.8953 15.4999ZM4.28258 13.1298L3.79081 13.2202L3.79213 13.2274L3.79366 13.2345L4.28258 13.1298ZM4.25065 12.9561L3.75646 13.0321L3.75757 13.0393L3.75888 13.0465L4.25065 12.9561ZM2.64204 2.50014L3.13622 2.42411L3.071 2.00014H2.64204V2.50014ZM1.38336 0.506911L1.35456 0.00774062L1.34008 0.00857604L1.32567 0.0102496L1.38336 0.506911ZM1.49998 0.500183V0.000183105H1.48557L1.47118 0.00101304L1.49998 0.500183ZM18.253 6.50006L18.7411 6.60853L18.8764 6.00006H18.253V6.50006ZM5.28092 6.50006V6.00006H4.69812L4.78674 6.57609L5.28092 6.50006ZM6.22738 12.652L5.73319 12.728L6.22738 12.652ZM7.10326 13.4936L7.04741 13.9905L7.06135 13.9921L7.07536 13.9929L7.10326 13.4936ZM7.21573 13.4999L7.18782 13.9991L7.20176 13.9999H7.21573V13.4999ZM16.8399 12.8284L17.3123 12.9923L17.317 12.9787L17.321 12.9648L16.8399 12.8284ZM16.8715 12.7169L17.3526 12.8532L17.3565 12.8394L17.3596 12.8253L16.8715 12.7169ZM6.99997 17.9998C7.55224 17.9998 7.99994 18.4475 7.99994 18.9998H8.99994C8.99994 17.8953 8.10452 16.9998 6.99997 16.9998V17.9998ZM7.99994 18.9998C7.99994 19.5521 7.55224 19.9998 6.99997 19.9998V20.9998C8.10452 20.9998 8.99994 20.1044 8.99994 18.9998H7.99994ZM6.99997 19.9998C6.4477 19.9998 6 19.5521 6 18.9998H5C5 20.1044 5.89542 20.9998 6.99997 20.9998V19.9998ZM6 18.9998C6 18.4475 6.4477 17.9998 6.99997 17.9998V16.9998C5.89542 16.9998 5 17.8953 5 18.9998H6ZM15.9996 17.9998C16.5519 17.9998 16.9996 18.4475 16.9996 18.9998H17.9996C17.9996 17.8953 17.1042 16.9998 15.9996 16.9998V17.9998ZM16.9996 18.9998C16.9996 19.5521 16.5519 19.9998 15.9996 19.9998V20.9998C17.1042 20.9998 17.9996 20.1044 17.9996 18.9998H16.9996ZM15.9996 19.9998C15.4474 19.9998 14.9997 19.5521 14.9997 18.9998H13.9997C13.9997 20.1044 14.8951 20.9998 15.9996 20.9998V19.9998ZM14.9997 18.9998C14.9997 18.4475 15.4474 17.9998 15.9996 17.9998V16.9998C14.8951 16.9998 13.9997 17.8953 13.9997 18.9998H14.9997ZM1.49998 1.00018H3.49994V0.000183105H1.49998V1.00018ZM3.49994 1.00018C3.72752 1.00018 3.92409 1.15354 3.98238 1.36867L4.94758 1.10715C4.77237 0.460494 4.18355 0.000183105 3.49994 0.000183105V1.00018ZM3.9758 1.3414L3.99912 1.4516L4.97746 1.24462L4.95415 1.13442L3.9758 1.3414ZM3.99411 1.42414L4.47903 4.57613L5.4674 4.42407L4.98248 1.27208L3.99411 1.42414ZM4.97321 5.0001H19.4996V4.0001H4.97321V5.0001ZM19.4996 5.0001C19.7988 5.0001 20.0272 5.26023 19.9974 5.54912L20.9921 5.65174C21.0819 4.78131 20.3999 4.0001 19.4996 4.0001V5.0001ZM20.0012 5.52026L19.9823 5.63685L20.9693 5.79717L20.9883 5.68059L20.0012 5.52026ZM19.9877 5.60854L18.3358 13.0423L19.3119 13.2592L20.9639 5.82547L19.9877 5.60854ZM18.3358 13.0423C18.0926 14.1362 17.1538 14.9285 16.0475 14.9953L16.1078 15.9935C17.6573 15.8999 18.9715 14.791 19.3119 13.2592L18.3358 13.0423ZM16.0626 14.9946L15.8803 15.0001L15.9104 15.9997L16.0927 15.9942L16.0626 14.9946ZM15.8953 14.9999H7.2157V15.9999H15.8953V14.9999ZM7.2157 14.9999C6.03127 14.9999 5.01669 14.1702 4.77149 13.0251L3.79366 13.2345C4.13709 14.8383 5.55722 15.9999 7.2157 15.9999V14.9999ZM4.77434 13.0395L4.74241 12.8657L3.75888 13.0465L3.79081 13.2202L4.77434 13.0395ZM4.74483 12.8801L3.13622 2.42411L2.14785 2.57617L3.75646 13.0321L4.74483 12.8801ZM2.64204 2.00014H1.49998V3.00014H2.64204V2.00014ZM1.49998 2.00014C1.22385 2.00014 1 1.77629 1 1.50016H0C0 2.32858 0.671564 3.00014 1.49998 3.00014V2.00014ZM1 1.50016C1 1.24411 1.19291 1.03239 1.44105 1.00357L1.32567 0.0102496C0.579152 0.096957 0 0.730567 0 1.50016H1ZM1.41216 1.00608L1.52878 0.999353L1.47118 0.00101304L1.35456 0.00774062L1.41216 1.00608ZM1.49998 1.00018H3.49994V0.000183105H1.49998V1.00018ZM3.49994 0.000183105H1.49998V1.00018H3.49994V0.000183105ZM18.253 6.00006H5.28092V7.00006H18.253V6.00006ZM4.78674 6.57609L5.73319 12.728L6.72156 12.576L5.77511 6.42403L4.78674 6.57609ZM5.73319 12.728C5.83714 13.4037 6.38163 13.9157 7.04741 13.9905L7.15912 12.9968C6.93763 12.9719 6.75617 12.8009 6.72156 12.576L5.73319 12.728ZM7.07536 13.9929L7.18782 13.9991L7.24363 13.0007L7.13117 12.9944L7.07536 13.9929ZM7.21573 13.9999H15.8954V12.9999H7.21573V13.9999ZM15.8954 13.9999C16.54 13.9999 17.105 13.5896 17.3123 12.9923L16.3676 12.6644C16.2986 12.8632 16.11 12.9999 15.8954 12.9999V13.9999ZM17.321 12.9648L17.3526 12.8532L16.3905 12.5805L16.3589 12.692L17.321 12.9648ZM17.3596 12.8253L18.7411 6.60853L17.765 6.3916L16.3834 12.6084L17.3596 12.8253Z" fill="#4AAAFF" mask="url(#path-1-inside-1_40_201)"/>
</svg>
