<svg width="30" height="30" viewBox="0 0 30 30" fill="none" xmlns="http://www.w3.org/2000/svg">
<mask id="path-1-inside-1_3_94" fill="white">
<path fill-rule="evenodd" clip-rule="evenodd" d="M9.74939 25.5C10.992 25.5 11.9994 26.5074 11.9994 27.75C11.9994 28.9926 10.992 30 9.74939 30C8.50675 30 7.49939 28.9926 7.49939 27.75C7.49939 26.5074 8.50675 25.5 9.74939 25.5ZM23.2494 25.5C24.492 25.5 25.4994 26.5074 25.4994 27.75C25.4994 28.9926 24.492 30 23.2494 30C22.0067 30 20.9994 28.9926 20.9994 27.75C20.9994 26.5074 22.0067 25.5 23.2494 25.5ZM1.49939 0H4.49939C5.1828 0 5.77185 0.46026 5.94697 1.10661L5.98195 1.27191L6.70935 6H28.4994C29.399 6 30.0818 6.78102 29.9921 7.65052L29.9637 7.8254L27.4857 18.9762C27.0481 20.9456 25.3582 22.3715 23.3663 22.4918L23.0929 22.5H10.0731C7.94092 22.5 6.11484 21.0065 5.67337 18.9449L5.62547 18.6843L3.21251 3H1.49939C0.670962 3 -0.000610352 2.32843 -0.000610352 1.5C-0.000610352 0.730746 0.57845 0.0967393 1.32446 0.0100916L1.49939 0H4.49939H1.49939ZM26.6295 9H7.1709L8.5906 18.2281C8.69452 18.9035 9.239 19.4158 9.90446 19.4906L10.0732 19.5H23.0929C23.7374 19.5 24.3026 19.0897 24.5097 18.4927L24.5572 18.3254L26.6295 9Z"/>
</mask>
<path fill-rule="evenodd" clip-rule="evenodd" d="M9.74939 25.5C10.992 25.5 11.9994 26.5074 11.9994 27.75C11.9994 28.9926 10.992 30 9.74939 30C8.50675 30 7.49939 28.9926 7.49939 27.75C7.49939 26.5074 8.50675 25.5 9.74939 25.5ZM23.2494 25.5C24.492 25.5 25.4994 26.5074 25.4994 27.75C25.4994 28.9926 24.492 30 23.2494 30C22.0067 30 20.9994 28.9926 20.9994 27.75C20.9994 26.5074 22.0067 25.5 23.2494 25.5ZM1.49939 0H4.49939C5.1828 0 5.77185 0.46026 5.94697 1.10661L5.98195 1.27191L6.70935 6H28.4994C29.399 6 30.0818 6.78102 29.9921 7.65052L29.9637 7.8254L27.4857 18.9762C27.0481 20.9456 25.3582 22.3715 23.3663 22.4918L23.0929 22.5H10.0731C7.94092 22.5 6.11484 21.0065 5.67337 18.9449L5.62547 18.6843L3.21251 3H1.49939C0.670962 3 -0.000610352 2.32843 -0.000610352 1.5C-0.000610352 0.730746 0.57845 0.0967393 1.32446 0.0100916L1.49939 0H4.49939H1.49939ZM26.6295 9H7.1709L8.5906 18.2281C8.69452 18.9035 9.239 19.4158 9.90446 19.4906L10.0732 19.5H23.0929C23.7374 19.5 24.3026 19.0897 24.5097 18.4927L24.5572 18.3254L26.6295 9Z" fill="black"/>
<path d="M5.94697 1.10661L6.43615 1.00312L6.43324 0.989393L6.42957 0.975851L5.94697 1.10661ZM5.98195 1.27191L6.47613 1.19589L6.47401 1.18208L6.47112 1.16842L5.98195 1.27191ZM6.70935 6L6.21516 6.07603L6.28039 6.5H6.70935V6ZM29.9921 7.65052L30.4856 7.73068L30.4879 7.71631L30.4894 7.70183L29.9921 7.65052ZM29.9637 7.8254L30.4518 7.93386L30.4549 7.91979L30.4572 7.90556L29.9637 7.8254ZM27.4857 18.9762L27.9738 19.0847L27.4857 18.9762ZM23.3663 22.4918L23.3813 22.9915L23.3889 22.9913L23.3964 22.9909L23.3663 22.4918ZM23.0929 22.5V23H23.1004L23.1079 22.9998L23.0929 22.5ZM5.67337 18.9449L5.1816 19.0352L5.18292 19.0424L5.18445 19.0496L5.67337 18.9449ZM5.62547 18.6843L5.13129 18.7603L5.13239 18.7675L5.13371 18.7746L5.62547 18.6843ZM3.21251 3L3.7067 2.92397L3.64147 2.5H3.21251V3ZM1.32446 0.0100916L1.29566 -0.489078L1.28118 -0.488243L1.26677 -0.48657L1.32446 0.0100916ZM1.49939 0V-0.5H1.48498L1.47059 -0.49917L1.49939 0ZM26.6295 9L27.1176 9.10847L27.2528 8.5H26.6295V9ZM7.1709 9V8.5H6.58809L6.67671 9.07603L7.1709 9ZM8.5906 18.2281L8.09642 18.3041L8.5906 18.2281ZM9.90446 19.4906L9.84861 19.9874L9.86255 19.989L9.87656 19.9898L9.90446 19.4906ZM10.0732 19.5L10.0453 19.9992L10.0592 20H10.0732V19.5ZM24.5097 18.4927L24.9821 18.6566L24.9869 18.643L24.9908 18.629L24.5097 18.4927ZM24.5572 18.3254L25.0382 18.4618L25.0421 18.4479L25.0453 18.4339L24.5572 18.3254ZM9.74939 26C10.7159 26 11.4994 26.7835 11.4994 27.75H12.4994C12.4994 26.2312 11.2682 25 9.74939 25V26ZM11.4994 27.75C11.4994 28.7165 10.7159 29.5 9.74939 29.5V30.5C11.2682 30.5 12.4994 29.2688 12.4994 27.75H11.4994ZM9.74939 29.5C8.78289 29.5 7.99939 28.7165 7.99939 27.75H6.99939C6.99939 29.2688 8.23061 30.5 9.74939 30.5V29.5ZM7.99939 27.75C7.99939 26.7835 8.78289 26 9.74939 26V25C8.23061 25 6.99939 26.2312 6.99939 27.75H7.99939ZM23.2494 26C24.2159 26 24.9994 26.7835 24.9994 27.75H25.9994C25.9994 26.2312 24.7682 25 23.2494 25V26ZM24.9994 27.75C24.9994 28.7165 24.2159 29.5 23.2494 29.5V30.5C24.7682 30.5 25.9994 29.2688 25.9994 27.75H24.9994ZM23.2494 29.5C22.2829 29.5 21.4994 28.7165 21.4994 27.75H20.4994C20.4994 29.2688 21.7306 30.5 23.2494 30.5V29.5ZM21.4994 27.75C21.4994 26.7835 22.2829 26 23.2494 26V25C21.7306 25 20.4994 26.2312 20.4994 27.75H21.4994ZM1.49939 0.5H4.49939V-0.5H1.49939V0.5ZM4.49939 0.5C4.95478 0.5 5.34771 0.806784 5.46438 1.23737L6.42957 0.975851C6.19599 0.113737 5.41081 -0.5 4.49939 -0.5V0.5ZM5.4578 1.2101L5.49277 1.3754L6.47112 1.16842L6.43615 1.00312L5.4578 1.2101ZM5.48776 1.34794L6.21516 6.07603L7.20353 5.92397L6.47613 1.19589L5.48776 1.34794ZM6.70935 6.5H28.4994V5.5H6.70935V6.5ZM28.4994 6.5C29.0985 6.5 29.5544 7.02048 29.4947 7.59921L30.4894 7.70183C30.6091 6.54156 29.6996 5.5 28.4994 5.5V6.5ZM29.4985 7.57036L29.4701 7.74523L30.4572 7.90556L30.4856 7.73068L29.4985 7.57036ZM29.4756 7.71693L26.9976 18.8677L27.9738 19.0847L30.4518 7.93386L29.4756 7.71693ZM26.9976 18.8677C26.6086 20.6182 25.1065 21.8858 23.3362 21.9927L23.3964 22.9909C25.6099 22.8572 27.4875 21.273 27.9738 19.0847L26.9976 18.8677ZM23.3512 21.992L23.0778 22.0002L23.1079 22.9998L23.3813 22.9915L23.3512 21.992ZM23.0929 22H10.0731V23H23.0929V22ZM10.0731 22C8.17794 22 6.55465 20.6725 6.16229 18.8402L5.18445 19.0496C5.67504 21.3406 7.7039 23 10.0731 23V22ZM6.16513 18.8545L6.11724 18.5939L5.13371 18.7746L5.1816 19.0352L6.16513 18.8545ZM6.11966 18.6082L3.7067 2.92397L2.71833 3.07603L5.13129 18.7603L6.11966 18.6082ZM3.21251 2.5H1.49939V3.5H3.21251V2.5ZM1.49939 2.5C0.947105 2.5 0.49939 2.05228 0.49939 1.5H-0.50061C-0.50061 2.60457 0.39482 3.5 1.49939 3.5V2.5ZM0.49939 1.5C0.49939 0.987516 0.88533 0.564457 1.38214 0.506753L1.26677 -0.48657C0.27157 -0.370978 -0.50061 0.473976 -0.50061 1.5H0.49939ZM1.35325 0.509262L1.52819 0.49917L1.47059 -0.49917L1.29566 -0.489078L1.35325 0.509262ZM1.49939 0.5H4.49939V-0.5H1.49939V0.5ZM4.49939 -0.5H1.49939V0.5H4.49939V-0.5ZM26.6295 8.5H7.1709V9.5H26.6295V8.5ZM6.67671 9.07603L8.09642 18.3041L9.08479 18.1521L7.66508 8.92397L6.67671 9.07603ZM8.09642 18.3041C8.23501 19.2049 8.961 19.8877 9.84861 19.9874L9.96031 18.9937C9.517 18.9439 9.15404 18.6022 9.08479 18.1521L8.09642 18.3041ZM9.87656 19.9898L10.0453 19.9992L10.1011 19.0008L9.93237 18.9914L9.87656 19.9898ZM10.0732 20H23.0929V19H10.0732V20ZM23.0929 20C23.9523 20 24.7058 19.4529 24.9821 18.6566L24.0374 18.3287C23.8993 18.7265 23.5224 19 23.0929 19V20ZM24.9908 18.629L25.0382 18.4618L24.0761 18.189L24.0287 18.3563L24.9908 18.629ZM25.0453 18.4339L27.1176 9.10847L26.1414 8.89153L24.0691 18.2169L25.0453 18.4339Z" fill="white" mask="url(#path-1-inside-1_3_94)"/>
</svg>
