<svg width="27" height="33" viewBox="0 0 27 33" fill="none" xmlns="http://www.w3.org/2000/svg">
<path d="M6.64551 18.0789V9.39473C6.64551 8.08668 7.72869 7.02631 9.06486 7.02631C10.401 7.02631 11.4842 8.08668 11.4842 9.39473V18.0789" stroke="white" stroke-width="2" stroke-linecap="round" stroke-linejoin="round"/>
<path d="M26.0003 17.2895V22.4211C26.0003 27.4352 21.8481 31.5 16.7262 31.5H15.9197C10.7977 31.5 6.64551 27.4352 6.64551 22.4211V17.2895" stroke="white" stroke-width="2" stroke-linecap="round" stroke-linejoin="round"/>
<path d="M11.4844 20.4474V18.9519V16.5C11.4844 15.192 12.5676 14.1316 13.9037 14.1316C15.2399 14.1316 16.3231 15.192 16.3231 16.5V19.012V20.4474" stroke="white" stroke-width="2" stroke-linecap="round" stroke-linejoin="round"/>
<path d="M16.3228 20.4474V18.9519V16.5C16.3228 15.192 17.4059 14.1316 18.7421 14.1316C20.0783 14.1316 21.1615 15.192 21.1615 16.5V19.012V20.4474" stroke="white" stroke-width="2" stroke-linecap="round" stroke-linejoin="round"/>
<path d="M21.1611 20.4474V18.9519V16.5C21.1611 15.192 22.2443 14.1316 23.5805 14.1316C24.9167 14.1316 25.9998 15.192 25.9998 16.5V19.012V20.4474" stroke="white" stroke-width="2" stroke-linecap="round" stroke-linejoin="round"/>
<path d="M17.129 9.39474C17.129 8.56491 16.9982 7.76499 16.7558 7.01364C16.4845 6.17331 16.0736 5.39375 15.5496 4.70108C14.0805 2.75899 11.7227 1.5 9.06452 1.5C6.40635 1.5 4.04855 2.75899 2.57941 4.70108C2.05543 5.39375 1.64448 6.17331 1.37327 7.01364C1.13078 7.76499 1 8.56491 1 9.39474" stroke="white" stroke-width="2" stroke-linecap="round"/>
</svg>
