<svg width="130" height="38" viewBox="0 0 130 38" fill="none" xmlns="http://www.w3.org/2000/svg">
<path d="M125.185 38H4.81481C2.16787 38 0 35.8613 0 33.25V4.75C0 2.13869 2.16787 4.37036e-06 4.81481 4.37036e-06H125.185C127.832 4.37036e-06 130 2.13869 130 4.75V33.25C130 35.8613 127.832 38 125.185 38Z" fill="black"/>
<path d="M125.185 0.761191C127.414 0.761191 129.228 2.55075 129.228 4.75V33.25C129.228 35.4493 127.414 37.2388 125.185 37.2388H4.81481C2.58556 37.2388 0.771574 35.4493 0.771574 33.25V4.75C0.771574 2.55075 2.58556 0.761191 4.81481 0.761191H125.185ZM125.185 4.37036e-06H4.81481C2.16787 4.37036e-06 0 2.13869 0 4.75V33.25C0 35.8613 2.16787 38 4.81481 38H125.185C127.832 38 130 35.8613 130 33.25V4.75C130 2.13869 127.832 4.37036e-06 125.185 4.37036e-06Z" fill="#A6A6A6"/>
<path d="M45.6613 9.73154C45.6613 10.5248 45.4206 11.1601 44.9463 11.6339C44.401 12.1956 43.6908 12.4782 42.8206 12.4782C41.9888 12.4782 41.2786 12.1909 40.696 11.6244C40.1122 11.0497 39.8209 10.3443 39.8209 9.49998C39.8209 8.65567 40.1122 7.95029 40.696 7.38029C41.2786 6.8091 41.9888 6.52173 42.8206 6.52173C43.2346 6.52173 43.6294 6.60604 44.0062 6.76279C44.3818 6.92073 44.6875 7.13448 44.909 7.3981L44.4058 7.89923C44.0194 7.44917 43.4934 7.2271 42.8206 7.2271C42.2139 7.2271 41.6879 7.4361 41.2413 7.85767C40.7995 8.28042 40.578 8.82785 40.578 9.49998C40.578 10.1721 40.7995 10.7243 41.2413 11.147C41.6879 11.5639 42.2139 11.7776 42.8206 11.7776C43.4645 11.7776 44.0062 11.5639 44.4335 11.1423C44.7152 10.8632 44.8753 10.4785 44.9174 9.98685H42.8206V9.30048H45.618C45.6517 9.44892 45.6613 9.5926 45.6613 9.73154Z" fill="white" stroke="white" stroke-width="0.16" stroke-miterlimit="10"/>
<path d="M50.0993 7.35178H47.4716V9.15678H49.8405V9.84315H47.4716V11.6482H50.0993V12.3476H46.7277V6.65234H50.0993V7.35178Z" fill="white" stroke="white" stroke-width="0.16" stroke-miterlimit="10"/>
<path d="M53.2314 12.3476H52.4875V7.35178H50.8757V6.65234H54.8443V7.35178H53.2314V12.3476Z" fill="white" stroke="white" stroke-width="0.16" stroke-miterlimit="10"/>
<path d="M57.7164 12.3476V6.65234H58.4591V12.3476H57.7164Z" fill="white" stroke="white" stroke-width="0.16" stroke-miterlimit="10"/>
<path d="M61.7511 12.3476H61.0133V7.35178H59.3955V6.65234H63.3689V7.35178H61.7511V12.3476Z" fill="white" stroke="white" stroke-width="0.16" stroke-miterlimit="10"/>
<path d="M70.8824 11.6149C70.3131 12.1909 69.6077 12.4782 68.7663 12.4782C67.9201 12.4782 67.2147 12.1909 66.6454 11.6149C66.0772 11.0402 65.7944 10.3348 65.7944 9.49998C65.7944 8.66517 66.0772 7.95979 66.6454 7.38504C67.2147 6.8091 67.9201 6.52173 68.7663 6.52173C69.6029 6.52173 70.3083 6.8091 70.8776 7.38979C71.4506 7.96929 71.7335 8.66992 71.7335 9.49998C71.7335 10.3348 71.4506 11.0402 70.8824 11.6149ZM67.1955 11.1375C67.624 11.5639 68.1452 11.7776 68.7663 11.7776C69.3826 11.7776 69.9086 11.5639 70.3323 11.1375C70.7597 10.7112 70.9763 10.1638 70.9763 9.49998C70.9763 8.83617 70.7597 8.28873 70.3323 7.86242C69.9086 7.4361 69.3826 7.22235 68.7663 7.22235C68.1452 7.22235 67.624 7.4361 67.1955 7.86242C66.7682 8.28873 66.5515 8.83617 66.5515 9.49998C66.5515 10.1638 66.7682 10.7112 67.1955 11.1375Z" fill="white" stroke="white" stroke-width="0.16" stroke-miterlimit="10"/>
<path d="M72.7771 12.3476V6.65234H73.6799L76.4869 11.0817H76.5194L76.4869 9.98684V6.65234H77.2296V12.3476H76.4544L73.515 7.69972H73.4825L73.515 8.79934V12.3476H72.7771Z" fill="white" stroke="white" stroke-width="0.16" stroke-miterlimit="10"/>
<path d="M65.6115 20.6648C63.3497 20.6648 61.502 22.3629 61.502 24.7059C61.502 27.0298 63.3497 28.7457 65.6115 28.7457C67.8781 28.7457 69.7258 27.0298 69.7258 24.7059C69.7258 22.3629 67.8781 20.6648 65.6115 20.6648ZM65.6115 27.1545C64.3705 27.1545 63.3028 26.1439 63.3028 24.7059C63.3028 23.2488 64.3705 22.256 65.6115 22.256C66.8525 22.256 67.925 23.2488 67.925 24.7059C67.925 26.1439 66.8525 27.1545 65.6115 27.1545ZM56.6451 20.6648C54.3785 20.6648 52.5357 22.3629 52.5357 24.7059C52.5357 27.0298 54.3785 28.7457 56.6451 28.7457C58.9105 28.7457 60.7545 27.0298 60.7545 24.7059C60.7545 22.3629 58.9105 20.6648 56.6451 20.6648ZM56.6451 27.1545C55.4029 27.1545 54.3316 26.1439 54.3316 24.7059C54.3316 23.2488 55.4029 22.256 56.6451 22.256C57.8861 22.256 58.9538 23.2488 58.9538 24.7059C58.9538 26.1439 57.8861 27.1545 56.6451 27.1545ZM45.9755 21.9034V23.6205H50.1319C50.0103 24.58 49.6853 25.2854 49.187 25.777C48.5803 26.3707 47.6354 27.0298 45.9755 27.0298C43.4176 27.0298 41.4146 24.9932 41.4146 22.4698C41.4146 19.9464 43.4176 17.9098 45.9755 17.9098C47.3585 17.9098 48.3648 18.443 49.1075 19.1341L50.3341 17.924C49.2953 16.9455 47.9134 16.1939 45.9755 16.1939C42.4679 16.1939 39.52 19.0094 39.52 22.4698C39.52 25.9302 42.4679 28.7457 45.9755 28.7457C47.8713 28.7457 49.2953 28.133 50.4147 26.9835C51.5619 25.8518 51.9194 24.2605 51.9194 22.9757C51.9194 22.5767 51.8857 22.2097 51.8255 21.9034H45.9755ZM89.6049 23.2345C89.2667 22.3309 88.2231 20.6648 86.0973 20.6648C83.9908 20.6648 82.237 22.3024 82.237 24.7059C82.237 26.9692 83.9728 28.7457 86.2995 28.7457C88.1809 28.7457 89.2667 27.614 89.7132 26.955L88.3169 26.037C87.8511 26.7092 87.2168 27.1545 86.2995 27.1545C85.3883 27.1545 84.7347 26.7424 84.3158 25.9302L89.7939 23.6941L89.6049 23.2345ZM84.0197 24.58C83.9728 23.022 85.2463 22.224 86.1587 22.224C86.8737 22.224 87.4804 22.5767 87.6826 23.0814L84.0197 24.58ZM79.5672 28.4999H81.368V16.6249H79.5672V28.4999ZM76.6182 21.5649H76.558C76.1535 21.0923 75.382 20.6648 74.4045 20.6648C72.3534 20.6648 70.4781 22.4413 70.4781 24.7189C70.4781 26.9835 72.3534 28.7457 74.4045 28.7457C75.382 28.7457 76.1535 28.3147 76.558 27.8278H76.6182V28.4073C76.6182 29.9522 75.7816 30.7823 74.4322 30.7823C73.332 30.7823 72.6495 29.9985 72.3679 29.3395L70.8019 29.9843C71.2532 31.0554 72.4485 32.3735 74.4322 32.3735C76.5435 32.3735 78.325 31.148 78.325 28.1662V20.9106H76.6182V21.5649ZM74.5586 27.1545C73.3176 27.1545 72.2788 26.1297 72.2788 24.7189C72.2788 23.2951 73.3176 22.256 74.5586 22.256C75.7816 22.256 76.7457 23.2951 76.7457 24.7189C76.7457 26.1297 75.7816 27.1545 74.5586 27.1545ZM98.0356 16.6249H93.7288V28.4999H95.5247V24.0005H98.0356C100.03 24.0005 101.986 22.5767 101.986 20.3121C101.986 18.0487 100.025 16.6249 98.0356 16.6249ZM98.0826 22.3487H95.5247V18.2767H98.0826C99.4235 18.2767 100.189 19.3752 100.189 20.3121C100.189 21.2312 99.4235 22.3487 98.0826 22.3487ZM109.184 20.6422C107.887 20.6422 106.537 21.2075 105.982 22.4603L107.576 23.1194C107.919 22.4603 108.55 22.2465 109.217 22.2465C110.149 22.2465 111.093 22.7987 111.108 23.7737V23.8984C110.783 23.7131 110.087 23.4388 109.231 23.4388C107.515 23.4388 105.766 24.371 105.766 26.1107C105.766 27.7019 107.172 28.7267 108.752 28.7267C109.961 28.7267 110.628 28.1888 111.046 27.563H111.108V28.4809H112.842V23.9257C112.842 21.8202 111.249 20.6422 109.184 20.6422ZM108.968 27.1497C108.38 27.1497 107.562 26.8624 107.562 26.1439C107.562 25.2248 108.582 24.8721 109.466 24.8721C110.257 24.8721 110.628 25.0443 111.108 25.2711C110.967 26.3707 110.008 27.1497 108.968 27.1497ZM119.162 20.9023L117.097 26.0501H117.036L114.902 20.9023H112.965L116.172 28.0962L114.342 32.0992H116.219L121.16 20.9023H119.162ZM102.973 28.4999H104.774V16.6249H102.973V28.4999Z" fill="white"/>
<path d="M10.0485 7.16197C9.76563 7.4541 9.60193 7.90891 9.60193 8.49791V29.5072C9.60193 30.0962 9.76563 30.551 10.0485 30.8431L10.1183 30.9072L22.0518 19.1391V18.8612L10.1183 7.0931L10.0485 7.16197Z" fill="url(#paint0_linear_58_331)"/>
<path d="M26.0252 23.0637L22.0518 19.139V18.8612L26.0301 14.9365L26.1191 14.9875L30.8304 17.6321C32.175 18.3826 32.175 19.6176 30.8304 20.3728L26.1191 23.0127L26.0252 23.0637Z" fill="url(#paint1_linear_58_331)"/>
<path d="M26.1192 23.0128L22.0519 19.0003L10.0485 30.8432C10.4951 31.3063 11.2233 31.3622 12.0515 30.899L26.1192 23.0128Z" fill="url(#paint2_linear_58_331)"/>
<path d="M26.1192 14.9877L12.0515 7.1015C11.2233 6.64312 10.4951 6.69893 10.0485 7.16206L22.0519 19.0002L26.1192 14.9877Z" fill="url(#paint3_linear_58_331)"/>
<defs>
<linearGradient id="paint0_linear_58_331" x1="20.9923" y1="29.7259" x2="5.05046" y2="13.5666" gradientUnits="userSpaceOnUse">
<stop stop-color="#00A0FF"/>
<stop offset="0.0066" stop-color="#00A1FF"/>
<stop offset="0.2601" stop-color="#00BEFF"/>
<stop offset="0.5122" stop-color="#00D2FF"/>
<stop offset="0.7604" stop-color="#00DFFF"/>
<stop offset="1" stop-color="#00E3FF"/>
</linearGradient>
<linearGradient id="paint1_linear_58_331" x1="32.5812" y1="18.9988" x2="9.28053" y2="18.9988" gradientUnits="userSpaceOnUse">
<stop stop-color="#FFE000"/>
<stop offset="0.4087" stop-color="#FFBD00"/>
<stop offset="0.7754" stop-color="#FFA500"/>
<stop offset="1" stop-color="#FF9C00"/>
</linearGradient>
<linearGradient id="paint2_linear_58_331" x1="23.9075" y1="16.819" x2="2.28909" y2="-5.0944" gradientUnits="userSpaceOnUse">
<stop stop-color="#FF3A44"/>
<stop offset="1" stop-color="#C31162"/>
</linearGradient>
<linearGradient id="paint3_linear_58_331" x1="7.02703" y1="37.8329" x2="16.6806" y2="28.0476" gradientUnits="userSpaceOnUse">
<stop stop-color="#32A071"/>
<stop offset="0.0685" stop-color="#2DA771"/>
<stop offset="0.4762" stop-color="#15CF74"/>
<stop offset="0.8009" stop-color="#06E775"/>
<stop offset="1" stop-color="#00F076"/>
</linearGradient>
</defs>
</svg>
